HIERARCHY
ROOT Hips
{
  OFFSET 0.000000 0.000000 0.000000
  CHANNELS 6 Xposition Yposition Zposition Zrotation Yrotation Xrotation
  JOINT Spine
  {
    OFFSET 0.015939 2.131027 0.080075
    CHANNELS 3 Zrotation Yrotation Xrotation
    JOINT Spine1
    {
      OFFSET 0.013929 2.097232 0.183376
      CHANNELS 3 Zrotation Yrotation Xrotation
      JOINT Spine2
      {
        OFFSET 0.006777 2.108475 0.143745
        CHANNELS 3 Zrotation Yrotation Xrotation
        JOINT Neck
        {
          OFFSET 0.053514 1.389151 0.324936
          CHANNELS 3 Zrotation Yrotation Xrotation
          JOINT Head
          {
            OFFSET -0.004333 1.477022 -0.110557
            CHANNELS 3 Zrotation Yrotation Xrotation
            End Site
            {
              OFFSET 0 0 0
            }
          }
        }
        JOINT LeftShoulder
        {
          OFFSET 2.871981 0.922487 0.111319
          CHANNELS 3 Zrotation Yrotation Xrotation
          JOINT LeftArm
          {
            OFFSET 5.527310 -0.000000 0.000000
            CHANNELS 3 Zrotation Yrotation Xrotation
            JOINT LeftForeArm
            {
              OFFSET 3.110590 -0.000000 0.000000
              CHANNELS 3 Zrotation Yrotation Xrotation
              JOINT LeftHand
              {
                OFFSET 0.419626 -0.000000 0.000000
                CHANNELS 3 Zrotation Yrotation Xrotation
                JOINT LeftHandIndex1
                {
                  OFFSET 0.338313 -0.000000 0.000000
                  CHANNELS 3 Zrotation Yrotation Xrotation
                  End Site
                  {
                    OFFSET 0 0 0
                  }
                }
              }
            }
          }
        }
        JOINT RightShoulder
        {
          OFFSET -2.947098 0.680721 0.321868
          CHANNELS 3 Zrotation Yrotation Xrotation
          JOINT RightArm
          {
            OFFSET -5.253960 -0.000000 -0.000000
            CHANNELS 3 Zrotation Yrotation Xrotation
            JOINT RightForeArm
            {
              OFFSET -3.105670 -0.000000 0.000000
              CHANNELS 3 Zrotation Yrotation Xrotation
              JOINT RightHand
              {
                OFFSET -0.498676 -0.000000 0.000000
                CHANNELS 3 Zrotation Yrotation Xrotation
                JOINT RightHandIndex1
                {
                  OFFSET -0.402045 -0.000000 0.000000
                  CHANNELS 3 Zrotation Yrotation Xrotation
                  End Site
                  {
                    OFFSET 0 0 0
                  }
                }
              }
            }
          }
        }
      }
    }
  }
  JOINT LeftUpLeg
  {
    OFFSET 2.068103 -5.682070 0.000000
    CHANNELS 3 Zrotation Yrotation Xrotation
    JOINT LeftLeg
    {
      OFFSET 2.466306 -6.776126 0.000000
      CHANNELS 3 Zrotation Yrotation Xrotation
      JOINT LeftFoot
      {
        OFFSET 0.260310 -0.715197 1.995450
        CHANNELS 3 Zrotation Yrotation Xrotation
        JOINT LeftToeBase
        {
          OFFSET 0.000000 -0.000000 1.059570
          CHANNELS 3 Zrotation Yrotation Xrotation
          End Site
          {
            OFFSET 0 0 0
          }
        }
      }
    }
  }
  JOINT RightUpLeg
  {
    OFFSET -2.173428 -5.971448 0.000000
    CHANNELS 3 Zrotation Yrotation Xrotation
    JOINT RightLeg
    {
      OFFSET -2.523718 -6.933863 0.000000
      CHANNELS 3 Zrotation Yrotation Xrotation
      JOINT RightFoot
      {
        OFFSET -0.225383 -0.619235 2.114475
        CHANNELS 3 Zrotation Yrotation Xrotation
        JOINT RightToeBase
        {
          OFFSET -0.000000 -0.000000 1.105060
          CHANNELS 3 Zrotation Yrotation Xrotation
          End Site
          {
            OFFSET 0 0 0
          }
        }
      }
    }
  }
}
MOTION
Frames: 9
Frame Time: 0.00833333
-4.334880 15.219600 40.641100 178.888000 8.023020 -161.173000 -22.515200 -8.113830 -31.936300 0.000000 0.000000 22.971700 7.917850 0.000000 -8.794230 0.000000 0.000000 -8.046710 19.554400 9.069930 -30.491900 0.000000 0.000000 38.446100 -20.484300 0.000000 -20.264900 0.000000 0.000000 -12.907400 -5.153560 2.143110 -20.114900 -3.119350 4.971790 -4.637770 0.837793 2.730540 6.065830 6.564000 6.585840 -27.178100 -0.548344 3.299110 13.212500 0.000000 -0.000000 0.000000 86.699200 -23.737600 -31.589500 0.000000 0.000000 62.389600 2.082560 0.000000 -25.994500 0.000000 0.000000 7.125020 0.000000 -0.000000 0.000000 -93.338100 26.876700 -27.689500 0.000000 0.000000 83.753700 -20.259800 0.000000 -16.955600 0.000000 0.000000 7.125020
-4.322280 15.226800 40.655700 178.810000 8.098440 -161.160000 -22.532600 -8.074680 -31.805100 0.000000 0.000000 22.604100 7.965650 0.000000 -8.625800 0.000000 0.000000 -8.175050 19.500000 9.205780 -30.567900 0.000000 0.000000 38.395800 -20.617200 0.000000 -20.142300 0.000000 0.000000 -13.184100 -5.062490 2.100070 -19.905100 -3.027600 4.888100 -4.884860 0.843323 2.717520 5.690740 6.602060 6.757690 -26.738400 -0.531876 3.406720 13.191200 -0.000000 0.000000 0.000000 86.964600 -23.064700 -32.083200 0.000000 0.000000 62.244300 2.080510 0.000000 -26.325000 0.000000 0.000000 7.125020 -0.000000 0.000000 0.000000 -93.548700 27.044800 -28.165200 0.000000 0.000000 83.447300 -19.117700 0.000000 -17.168200 0.000000 0.000000 7.125020
-4.309130 15.233000 40.669700 178.721000 8.155220 -161.163000 -22.536500 -8.121650 -31.751400 0.000000 0.000000 22.436800 8.088620 0.000000 -8.519400 0.000000 0.000000 -8.482100 19.422400 9.428280 -30.598900 0.000000 0.000000 38.321500 -20.803700 0.000000 -19.999900 0.000000 0.000000 -12.958900 -4.788410 2.200770 -20.097600 -3.178730 4.999990 -4.881580 0.568436 2.775500 5.828220 6.986710 6.862510 -26.247000 -0.636760 3.452150 13.077700 -0.000000 -0.000000 0.000000 86.879100 -22.910200 -32.104600 0.000000 0.000000 62.045000 1.813780 0.000000 -26.086800 0.000000 0.000000 7.125020 -0.000000 -0.000000 0.000000 -93.717900 26.680400 -28.265600 0.000000 0.000000 83.151200 -19.840600 0.000000 -16.328600 0.000000 0.000000 7.125020
-4.296310 15.235900 40.674900 178.779000 8.543330 -161.261000 -22.382300 -8.226310 -31.493100 0.000000 0.000000 22.279500 8.742710 0.000000 -8.552120 0.000000 0.000000 -8.613500 19.403400 9.920620 -30.534100 0.000000 0.000000 38.238300 -20.846700 0.000000 -19.883800 0.000000 0.000000 -12.795800 -4.547680 2.309750 -20.247600 -3.096580 5.088080 -4.858370 0.552669 2.812640 5.940910 7.020150 6.931020 -25.929300 -0.634796 3.499470 13.014000 -0.000000 0.000000 0.000000 87.029400 -22.288900 -32.307600 0.000000 0.000000 61.688900 1.797220 0.000000 -26.218100 0.000000 0.000000 7.125020 -0.000000 0.000000 0.000000 -93.858600 27.060300 -28.544400 0.000000 0.000000 82.675200 -20.333000 0.000000 -16.485300 0.000000 0.000000 7.125020
-4.282390 15.240200 40.684900 178.795000 8.796380 -161.301000 -22.272400 -8.282980 -31.379700 0.000000 0.000000 22.194700 9.171270 0.000000 -8.569000 0.000000 0.000000 -8.827970 19.382500 10.308000 -30.519700 0.000000 0.000000 38.143200 -20.945500 0.000000 -19.749600 0.000000 0.000000 -12.692700 -4.348040 2.381000 -20.303200 -3.048710 5.141250 -4.916280 0.506416 2.843620 5.917820 7.136020 7.016330 -25.532200 -0.656263 3.550920 12.949900 0.000000 -0.000000 0.000000 87.170700 -21.785000 -32.566400 0.000000 0.000000 61.379700 1.736780 0.000000 -26.268300 0.000000 0.000000 7.125020 0.000000 -0.000000 0.000000 -94.007500 27.204900 -28.867100 0.000000 0.000000 82.286600 -20.438600 0.000000 -16.341800 0.000000 0.000000 7.125020
-4.268330 15.244000 40.694800 178.835000 9.054490 -161.332000 -22.131100 -8.353390 -31.310700 0.000000 0.000000 22.187800 9.640890 0.000000 -8.628120 0.000000 0.000000 -9.081040 19.381100 10.716300 -30.499400 0.000000 0.000000 38.028900 -21.042300 0.000000 -19.614700 0.000000 0.000000 -12.566100 -4.147440 2.445690 -20.347400 -2.979750 5.183470 -4.986900 0.478221 2.870220 5.873540 7.229080 7.086000 -25.128200 -0.671813 3.594190 12.886600 0.000000 0.000000 0.000000 87.339700 -21.283100 -32.863200 0.000000 0.000000 61.023900 1.711540 0.000000 -26.317700 0.000000 0.000000 7.125020 0.000000 0.000000 0.000000 -94.151000 27.379500 -29.241000 0.000000 0.000000 81.898000 -20.529400 0.000000 -16.208100 0.000000 0.000000 7.125020
-4.254550 15.247900 40.704900 178.890000 9.295150 -161.344000 -21.950700 -8.483580 -31.264700 0.000000 0.000000 22.185600 10.165700 0.000000 -8.686630 0.000000 0.000000 -9.348370 19.396900 11.113400 -30.486600 0.000000 0.000000 37.904800 -21.137200 0.000000 -19.484800 0.000000 0.000000 -12.426600 -3.957240 2.487500 -20.380700 -2.873400 5.195080 -5.073250 0.486819 2.883000 5.802950 7.269370 7.144120 -24.716500 -0.675840 3.633920 12.824200 -0.000000 0.000000 0.000000 87.558400 -20.758400 -33.208500 0.000000 0.000000 60.633400 1.716130 0.000000 -26.393000 0.000000 0.000000 7.125020 -0.000000 0.000000 0.000000 -94.269000 27.609400 -29.668500 0.000000 0.000000 81.519000 -20.509000 0.000000 -16.138700 0.000000 0.000000 7.125020
-4.241010 15.252000 40.715900 178.947000 9.497240 -161.330000 -21.747500 -8.659380 -31.266800 0.000000 0.000000 22.203300 10.704600 0.000000 -8.744920 0.000000 0.000000 -9.651990 19.421400 11.477800 -30.491000 0.000000 0.000000 37.772200 -21.234000 0.000000 -19.364000 0.000000 0.000000 -12.237600 -3.775540 2.508340 -20.411000 -2.750770 5.183240 -5.183600 0.510616 2.886980 5.703240 7.290820 7.188000 -24.253200 -0.681604 3.666660 12.750000 -0.000000 0.000000 0.000000 87.817400 -20.267700 -33.609200 0.000000 0.000000 60.221500 1.739660 0.000000 -26.474500 0.000000 0.000000 7.125020 -0.000000 0.000000 0.000000 -94.374100 27.835700 -30.161400 0.000000 0.000000 81.166800 -20.387700 0.000000 -16.069400 0.000000 0.000000 7.125020
-4.228230 15.255900 40.726700 178.999000 9.671290 -161.306000 -21.530100 -8.894890 -31.285200 0.000000 0.000000 22.221100 11.280100 0.000000 -8.802450 0.000000 0.000000 -9.959450 19.446900 11.804300 -30.498900 0.000000 0.000000 37.639500 -21.326700 0.000000 -19.255900 0.000000 0.000000 -12.006900 -3.577280 2.525760 -20.480500 -2.637970 5.163570 -5.250110 0.517015 2.882810 5.673910 7.326230 7.241590 -23.894800 -0.688883 3.701960 12.701600 0.000000 0.000000 0.000000 88.051000 -19.838100 -33.932300 0.000000 0.000000 59.785900 1.767420 0.000000 -26.570500 0.000000 0.000000 7.125020 0.000000 0.000000 0.000000 -94.429700 28.057100 -30.568100 0.000000 0.000000 80.826000 -20.378600 0.000000 -16.015500 0.000000 0.000000 7.125020
